<svg width="128" height="128" viewBox="0 0 128 128" fill="none" xmlns="http://www.w3.org/2000/svg">
<rect width="128" height="128" fill="#111319"/>
<path d="M39.207 74.6328V92H26.8672V40.8125H47.293C51.207 40.8125 54.6641 41.5391 57.6641 42.9922C60.6875 44.4219 63.0195 46.4727 64.6602 49.1445C66.3242 51.793 67.1562 54.8047 67.1562 58.1797C67.1562 63.1719 65.3633 67.168 61.7773 70.168C58.2148 73.1445 53.3164 74.6328 47.082 74.6328H39.207ZM39.207 65.1055H47.293C49.6836 65.1055 51.5 64.5078 52.7422 63.3125C54.0078 62.1172 54.6406 60.4297 54.6406 58.25C54.6406 55.8594 53.9961 53.9492 52.707 52.5195C51.418 51.0898 49.6602 50.3633 47.4336 50.3398H39.207V65.1055ZM104 82.8242H109.168V92.0352H104V102.266H92.1172V92.0352H71.832L71.1289 84.7227L92.1172 51.1836V51.0781H104V82.8242ZM82.3789 82.8242H92.1172V66.5469L82.3789 82.8242Z" fill="#00FFFF"/>
<path d="M33.207 68.6328V86H20.8672V34.8125H41.293C45.207 34.8125 48.6641 35.5391 51.6641 36.9922C54.6875 38.4219 57.0195 40.4727 58.6602 43.1445C60.3242 45.793 61.1562 48.8047 61.1562 52.1797C61.1562 57.1719 59.3633 61.168 55.7773 64.168C52.2148 67.1445 47.3164 68.6328 41.082 68.6328H33.207ZM33.207 59.1055H41.293C43.6836 59.1055 45.5 58.5078 46.7422 57.3125C48.0078 56.1172 48.6406 54.4297 48.6406 52.25C48.6406 49.8594 47.9961 47.9492 46.707 46.5195C45.418 45.0898 43.6602 44.3633 41.4336 44.3398H33.207V59.1055ZM98 76.8242H103.168V86.0352H98V96.2656H86.1172V86.0352H65.832L65.1289 78.7227L86.1172 45.1836V45.0781H98V76.8242ZM76.3789 76.8242H86.1172V60.5469L76.3789 76.8242Z" fill="#FF00FF"/>
<path d="M36.207 71.6328V89H23.8672V37.8125H44.293C48.207 37.8125 51.6641 38.5391 54.6641 39.9922C57.6875 41.4219 60.0195 43.4727 61.6602 46.1445C63.3242 48.793 64.1562 51.8047 64.1562 55.1797C64.1562 60.1719 62.3633 64.168 58.7773 67.168C55.2148 70.1445 50.3164 71.6328 44.082 71.6328H36.207ZM36.207 62.1055H44.293C46.6836 62.1055 48.5 61.5078 49.7422 60.3125C51.0078 59.1172 51.6406 57.4297 51.6406 55.25C51.6406 52.8594 50.9961 50.9492 49.707 49.5195C48.418 48.0898 46.6602 47.3633 44.4336 47.3398H36.207V62.1055ZM101 79.8242H106.168V89.0352H101V99.2656H89.1172V89.0352H68.832L68.1289 81.7227L89.1172 48.1836V48.0781H101V79.8242ZM79.3789 79.8242H89.1172V63.5469L79.3789 79.8242Z" fill="#F5F5F5"/>
</svg>
